<?xml version="1.0" encoding="UTF-8"?><svg id="Layer_2" xmlns="http://www.w3.org/2000/svg" viewBox="0 0 208.98 43.58"><defs><style>.cls-1{fill:#1d1d1b;}</style></defs><path class="cls-1" d="M53.38,11.71h-8.94c-.18,0-.34-.1-.43-.25-1.51-2.62-3.88-4.68-6.68-5.81-.19-.08-.31-.26-.31-.46s.12-.39.31-.46c1.75-.71,3.59-1.07,5.48-1.07h10.58c.28,0,.5.22.5.5v7.05c0,.28-.22.5-.5.5ZM44.72,10.71h8.16v-6.05h-10.08c-1.35,0-2.68.2-3.96.59,2.41,1.23,4.47,3.13,5.88,5.46Z"/><path class="cls-1" d="M32.23,32.86c-8.05,0-14.6-6.55-14.6-14.6s6.55-14.6,14.6-14.6c1.89,0,3.73.36,5.48,1.07,3,1.21,5.54,3.43,7.17,6.23,1.28,2.21,1.96,4.74,1.96,7.3s-.68,5.09-1.96,7.3c-.09.15-.25.25-.43.25h-1.63c-2.16,0-4.23-.94-5.66-2.57-.17-.19-.17-.47,0-.66,1.06-1.2,1.64-2.73,1.64-4.32s-.58-3.12-1.64-4.32c-1.6-1.82-4.05-2.66-6.55-2.01-2.89.75-4.91,3.35-4.91,6.33s2.02,5.59,4.91,6.33c.13.03.25.12.31.24,1.51,2.72,3.92,4.87,6.81,6.03.19.08.31.26.31.46s-.12.39-.31.46c-1.75.71-3.59,1.07-5.48,1.07ZM32.23,4.66c-7.5,0-13.6,6.1-13.6,13.6s6.1,13.6,13.6,13.6c1.35,0,2.68-.2,3.96-.59-2.52-1.29-4.64-3.3-6.06-5.77-3.22-.93-5.45-3.88-5.45-7.24s2.33-6.44,5.66-7.3c2.86-.74,5.71.22,7.56,2.32,1.22,1.38,1.89,3.15,1.89,4.98,0,1.68-.56,3.31-1.6,4.63,1.23,1.22,2.89,1.92,4.62,1.92h1.34c1.1-2,1.68-4.26,1.68-6.55s-.63-4.74-1.82-6.8h0c-1.51-2.62-3.88-4.68-6.68-5.81-1.63-.66-3.34-.99-5.1-.99Z"/><path class="cls-1" d="M53.38,32.86h-10.58c-1.89,0-3.73-.36-5.48-1.07-3.09-1.25-5.69-3.55-7.31-6.48-1.19-2.15-1.82-4.59-1.82-7.06s.63-4.91,1.82-7.06c.07-.12.18-.21.31-.24,2.86-.74,5.71.22,7.56,2.32.17.19.17.47,0,.66-1.06,1.2-1.64,2.73-1.64,4.32s.58,3.12,1.64,4.32c1.25,1.42,3.04,2.23,4.91,2.23h10.58c.28,0,.5.22.5.5v7.05c0,.28-.22.5-.5.5ZM30.79,11.88c-1.04,1.96-1.59,4.16-1.59,6.38s.59,4.57,1.69,6.58c1.51,2.72,3.92,4.87,6.81,6.03,1.63.66,3.34.99,5.1.99h10.08v-6.05h-10.08c-2.16,0-4.23-.94-5.66-2.57-1.22-1.38-1.89-3.15-1.89-4.98,0-1.68.56-3.31,1.6-4.63-1.56-1.55-3.77-2.27-6.06-1.75Z"/><path class="cls-1" d="M78.05,32.86h-7.05c-.28,0-.5-.22-.5-.5,0-3.44-2.67-6.28-6.05-6.53v6.53c0,.28-.22.5-.5.5h-7.05c-.28,0-.5-.22-.5-.5V4.16c0-.28.22-.5.5-.5h7.05c.28,0,.5.22.5.5v6.53c3.38-.26,6.05-3.09,6.05-6.53,0-.28.22-.5.5-.5h7.05c.28,0,.5.22.5.5,0,6.74-4.59,12.43-10.81,14.1,6.22,1.67,10.81,7.36,10.81,14.1,0,.28-.22.5-.5.5ZM71.48,31.86h6.06c-.26-7.27-6.26-13.1-13.59-13.1-.28,0-.5-.22-.5-.5s.22-.5.5-.5c7.33,0,13.33-5.83,13.59-13.1h-6.06c-.26,3.93-3.54,7.05-7.53,7.05-.28,0-.5-.22-.5-.5v-6.55h-6.05v27.2h6.05v-6.55c0-.28.22-.5.5-.5,4,0,7.28,3.12,7.53,7.05Z"/><path class="cls-1" d="M106.25,32.86h-7.05c-.28,0-.5-.22-.5-.5v-1.05c-2.03,1.02-4.27,1.55-6.55,1.55-8.05,0-14.6-6.55-14.6-14.6s6.55-14.6,14.6-14.6c2.28,0,4.52.53,6.55,1.55v-1.05c0-.28.22-.5.5-.5h7.05c.28,0,.5.22.5.5v28.2c0,.28-.22.5-.5.5ZM99.7,31.86h6.05V4.66h-6.05v1.39c0,.18-.1.34-.25.43-.15.09-.34.09-.5,0-2.06-1.19-4.41-1.82-6.8-1.82-7.5,0-13.6,6.1-13.6,13.6s6.1,13.6,13.6,13.6c2.39,0,4.74-.63,6.8-1.82.16-.09.35-.09.5,0,.16.09.25.25.25.43v1.39ZM92.15,25.81c-4.16,0-7.55-3.39-7.55-7.55s3.39-7.55,7.55-7.55,7.55,3.39,7.55,7.55-3.39,7.55-7.55,7.55ZM92.15,11.71c-3.61,0-6.55,2.94-6.55,6.55s2.94,6.55,6.55,6.55,6.55-2.94,6.55-6.55-2.94-6.55-6.55-6.55Z"/><path class="cls-1" d="M134.45,32.86c-2.58,0-5.07-.9-7.05-2.54-1.98,1.64-4.47,2.54-7.05,2.54-6.11,0-11.08-4.97-11.08-11.08V4.16c0-.28.22-.5.5-.5h7.05c.28,0,.5.22.5.5v17.62c0,1.67,1.36,3.02,3.03,3.02s3.02-1.36,3.02-3.02V4.16c0-.28.22-.5.5-.5h7.05c.28,0,.5.22.5.5v17.62c0,1.67,1.36,3.02,3.03,3.02s3.02-1.36,3.02-3.02V4.16c0-.28.22-.5.5-.5h7.05c.28,0,.5.22.5.5v17.62c0,6.11-4.97,11.08-11.07,11.08ZM127.4,29.17c.12,0,.24.04.33.13,1.85,1.66,4.23,2.57,6.72,2.57,5.56,0,10.07-4.52,10.07-10.08V4.66h-6.05v17.12c0,2.22-1.81,4.02-4.02,4.02s-4.03-1.81-4.03-4.02V4.66h-6.05v17.12c0,2.22-1.81,4.02-4.02,4.02s-4.03-1.81-4.03-4.02V4.66h-6.05v17.12c0,5.56,4.52,10.08,10.08,10.08,2.48,0,4.87-.91,6.72-2.57.09-.08.21-.13.33-.13Z"/><path class="cls-1" d="M176.75,32.86h-7.05c-.28,0-.5-.22-.5-.5v-1.05c-2.03,1.02-4.27,1.55-6.55,1.55-8.05,0-14.6-6.55-14.6-14.6s6.55-14.6,14.6-14.6c2.28,0,4.52.53,6.55,1.55v-1.05c0-.28.22-.5.5-.5h7.05c.28,0,.5.22.5.5v28.2c0,.28-.22.5-.5.5ZM170.2,31.86h6.05V4.66h-6.05v1.39c0,.18-.1.34-.25.43-.16.09-.35.09-.5,0-2.06-1.19-4.41-1.82-6.8-1.82-7.5,0-13.6,6.1-13.6,13.6s6.1,13.6,13.6,13.6c2.39,0,4.74-.63,6.8-1.82.16-.09.35-.09.5,0,.15.09.25.25.25.43v1.39ZM162.65,25.81c-4.16,0-7.55-3.39-7.55-7.55s3.39-7.55,7.55-7.55,7.55,3.39,7.55,7.55-3.39,7.55-7.55,7.55ZM162.65,11.71c-3.61,0-6.55,2.94-6.55,6.55s2.94,6.55,6.55,6.55,6.55-2.94,6.55-6.55-2.94-6.55-6.55-6.55Z"/><path class="cls-1" d="M7.55,32.86H.5C.22,32.86,0,32.64,0,32.36V4.16C0,3.89.22,3.66.5,3.66h7.05c.28,0,.5.22.5.5v.99c1.98-.98,4.18-1.49,6.4-1.49h3.68c.28,0,.5.22.5.5v7.05c0,.28-.22.5-.5.5h-3.79c-3.46,0-6.28,2.82-6.28,6.28v14.37c0,.28-.22.5-.5.5ZM1,31.86h6.05v-13.87c0-4.02,3.27-7.28,7.28-7.28h3.29v-6.05h-3.18c-2.33,0-4.63.61-6.65,1.76-.15.09-.34.09-.5,0-.15-.09-.25-.25-.25-.43v-1.33H1v27.2Z"/><path class="cls-1" d="M176.75,43.44H.5C.22,43.44,0,43.22,0,42.94v-7.05c0-.28.22-.5.5-.5h176.25c.28,0,.5.22.5.5v7.05c0,.28-.22.5-.5.5ZM1,42.44h175.25v-6.05H1v6.05Z"/><path class="cls-1" d="M204.95.14c-2.22,0-4.02,1.81-4.02,4.02v7.95c-.74-.85-1.81-1.4-3.03-1.4-1.53,0-2.84.87-3.52,2.12-.68-1.26-2-2.12-3.52-2.12-1.21,0-2.29.55-3.02,1.4v-7.95c0-2.22-1.81-4.02-4.02-4.02s-4.03,1.81-4.03,4.02v21.15c0,4.16,3.39,7.55,7.55,7.55h13.56c-.24,1.43-1.49,2.52-2.98,2.52h-17.62c-.28,0-.5.22-.5.5v7.05c0,.28.22.5.5.5h17.62c6.11,0,11.08-4.97,11.08-11.07V4.16c0-2.22-1.81-4.02-4.02-4.02ZM197.9,11.71c1.67,0,3.03,1.36,3.03,3.02v7.05c0,1.67-1.36,3.02-3.03,3.02s-3.02-1.36-3.02-3.02v-7.05c0-1.67,1.36-3.02,3.02-3.02ZM190.85,11.71c1.67,0,3.02,1.36,3.02,3.02v7.05c0,1.67-1.36,3.02-3.02,3.02s-3.02-1.36-3.02-3.02v-7.05c0-1.67,1.36-3.02,3.02-3.02ZM207.98,32.36c0,5.56-4.52,10.07-10.08,10.07h-17.12v-6.05h17.12c2.22,0,4.03-1.81,4.03-4.02,0-.28-.22-.5-.5-.5h-14.1c-3.61,0-6.55-2.94-6.55-6.55V4.16c0-1.67,1.36-3.02,3.03-3.02s3.02,1.36,3.02,3.02v17.62c0,2.22,1.81,4.02,4.02,4.02,1.53,0,2.84-.87,3.52-2.12.68,1.26,2,2.12,3.52,2.12,2.22,0,4.03-1.81,4.03-4.02V4.16c0-1.67,1.36-3.02,3.02-3.02s3.02,1.36,3.02,3.02v28.2Z"/></svg>